<?xml version="1.0" standalone="no"?>
<!DOCTYPE svg PUBLIC "-//W3C//DTD SVG 20010904//EN"
 "http://www.w3.org/TR/2001/REC-SVG-20010904/DTD/svg10.dtd">
<svg version="1.0" xmlns="http://www.w3.org/2000/svg"
 width="784.000000pt" height="576.000000pt" viewBox="0 0 784.000000 576.000000"
 preserveAspectRatio="xMidYMid meet">
<metadata>
Created by potrace 1.16, written by Peter Selinger 2001-2019
</metadata>
<g transform="translate(0.000000,576.000000) scale(0.100000,-0.100000)"
fill="#000000" stroke="none">
<path d="M3610 5524 c-204 -20 -495 -88 -676 -159 -732 -287 -1295 -885 -1546
-1640 -53 -159 -88 -310 -120 -515 -21 -134 -18 -615 5 -760 21 -134 66 -342
76 -352 6 -7 24 -2 98 26 1 1 -10 46 -23 101 -123 508 -88 1073 98 1562 288
761 913 1340 1670 1547 244 67 352 81 638 81 220 0 272 -3 380 -23 488 -87
880 -277 1244 -602 395 -353 675 -839 800 -1391 5 -25 8 -26 53 -21 27 2 50 6
52 8 6 5 -31 157 -70 284 -165 539 -503 1021 -948 1353 -265 198 -571 347
-868 423 -234 60 -353 75 -598 79 -121 1 -240 1 -265 -1z"/>
<path d="M3704 4869 c-56 -16 -127 -71 -151 -118 -27 -51 -31 -137 -9 -179 24
-45 76 -87 171 -136 103 -54 135 -84 135 -127 0 -99 -165 -106 -215 -9 -8 16
-17 30 -19 30 -14 0 -96 -54 -96 -64 0 -17 68 -80 110 -102 54 -29 240 -27
295 3 89 48 129 116 123 213 -5 96 -29 123 -170 195 -131 67 -158 88 -158 126
0 41 9 58 41 74 57 30 115 12 166 -50 l30 -35 33 22 c18 13 35 29 38 36 8 24
-83 100 -139 117 -57 16 -136 18 -185 4z"/>
<path d="M2550 4505 l0 -355 243 2 242 3 0 45 0 45 -138 3 -138 3 3 107 3 107
123 3 122 3 0 44 0 45 -125 0 -125 0 0 105 0 105 130 0 130 0 0 45 0 45 -235
0 -235 0 0 -355z"/>
<path d="M4552 4508 l3 -353 240 0 240 0 3 48 3 47 -141 0 -141 0 3 108 3 107
123 3 122 3 0 44 0 45 -125 0 -125 0 0 105 0 105 135 0 135 0 0 45 0 45 -240
0 -240 0 2 -352z"/>
<path d="M3222 4290 c-30 -28 -36 -62 -18 -98 18 -34 33 -42 85 -42 76 0 112
94 55 139 -35 27 -93 28 -122 1z"/>
<path d="M4216 4289 c-35 -27 -36 -86 -3 -117 34 -32 100 -30 132 3 77 76 -43
182 -129 114z"/>
<path d="M4133 3924 c-54 -20 -126 -84 -161 -142 -24 -42 -27 -57 -27 -142 0
-108 12 -141 76 -213 111 -127 323 -120 429 14 122 155 77 379 -94 466 -64 32
-161 40 -223 17z"/>
<path d="M2695 3798 c-43 -25 -46 -37 -41 -158 8 -201 70 -389 198 -603 l73
-122 3 -192 c2 -105 -1 -231 -7 -280 -5 -48 -8 -90 -6 -92 7 -6 77 42 163 111
75 60 89 68 127 68 37 0 48 -5 74 -35 25 -29 31 -45 31 -81 0 -51 -14 -82 -77
-173 -62 -90 -124 -159 -183 -206 l-50 -40 0 -122 c0 -68 2 -123 5 -123 3 0
24 9 47 21 88 45 221 32 267 -27 17 -21 22 -23 50 -13 17 6 67 9 110 8 72 -4
84 -7 131 -40 48 -33 58 -36 130 -38 l79 -2 -65 157 c-98 238 -158 435 -209
680 -14 65 -25 133 -25 150 l0 31 133 6 c112 4 230 21 300 43 19 6 22 45 11
151 l-7 61 -132 0 c-259 2 -451 55 -623 174 -161 111 -288 310 -348 547 -16
63 -32 104 -47 119 -27 27 -84 37 -112 20z"/>
<path d="M5099 3795 c-15 -8 -80 -68 -145 -133 -142 -141 -275 -234 -478 -333
-144 -71 -392 -158 -576 -203 -110 -26 -387 -76 -430 -76 -46 -1 1 -18 109
-40 71 -14 149 -22 252 -23 114 -3 153 -7 163 -18 34 -34 50 -711 27 -1119 -5
-91 -7 -168 -4 -172 2 -5 64 -8 138 -8 133 0 134 0 186 32 43 27 64 33 124 36
39 2 87 -1 107 -6 32 -9 39 -7 55 10 10 11 31 27 46 35 27 13 28 17 25 80 l-3
66 -101 51 c-129 65 -204 122 -259 197 -71 97 -81 195 -23 244 47 40 90 34
182 -24 77 -49 213 -107 225 -96 3 3 0 14 -7 23 -70 99 -89 206 -53 306 11 32
28 67 37 77 15 16 16 33 10 121 -4 57 -9 117 -12 133 -5 28 0 35 58 80 94 73
246 231 304 316 59 84 127 215 143 274 21 76 11 155 -23 177 -17 12 -48 9 -77
-7z"/>
<path d="M3312 3654 c-100 -50 -157 -144 -156 -259 1 -88 27 -146 94 -209 48
-45 122 -76 180 -76 64 0 132 31 185 83 110 111 115 281 11 404 -69 82 -211
108 -314 57z"/>
<path d="M6247 3330 c-49 -13 -113 -45 -160 -83 -39 -30 -107 -122 -107 -143
0 -6 20 -17 44 -23 25 -6 48 -15 51 -21 11 -18 21 -11 33 24 19 53 96 132 158
162 83 40 180 45 263 11 56 -23 61 -23 45 -6 -10 11 -45 33 -79 50 -69 34
-178 46 -248 29z"/>
<path d="M6325 3227 c-32 -12 -105 -56 -105 -62 0 -2 19 5 43 15 51 24 143 26
192 6 56 -24 105 -66 134 -117 24 -43 28 -46 46 -33 10 8 29 14 42 14 30 0 29
7 -5 61 -34 52 -86 94 -143 114 -49 18 -161 18 -204 2z"/>
<path d="M5929 3035 c-15 -8 -34 -31 -44 -51 -22 -46 -13 -94 25 -137 25 -28
35 -32 79 -32 43 0 55 5 81 30 78 78 26 206 -82 205 -18 -1 -45 -7 -59 -15z"/>
<path d="M6655 3016 c-57 -25 -71 -95 -29 -145 20 -25 34 -31 64 -31 30 0 44
6 64 31 44 51 26 127 -35 148 -18 6 -32 11 -33 11 -1 -1 -15 -7 -31 -14z"/>
<path d="M6582 2785 c-68 -104 -179 -146 -295 -111 -60 18 -50 1 17 -30 108
-50 243 -25 329 62 35 35 73 93 65 98 -2 1 -21 9 -43 17 l-40 15 -33 -51z"/>
<path d="M6060 2795 c-14 -8 -40 -14 -58 -15 l-32 0 24 -48 c72 -141 241 -226
400 -201 63 11 160 55 189 87 15 16 10 15 -35 -7 -45 -22 -66 -26 -138 -26
-70 0 -94 4 -135 25 -63 30 -148 114 -166 163 -15 42 -15 42 -49 22z"/>
<path d="M2605 2773 c-87 -19 -151 -66 -187 -136 -106 -208 109 -440 317 -343
160 74 193 289 63 413 -49 47 -139 78 -193 66z"/>
<path d="M4890 2771 c-71 -15 -143 -69 -176 -134 -23 -43 -29 -137 -14 -192 7
-25 30 -65 51 -89 51 -58 110 -86 180 -86 165 1 282 160 236 321 -36 122 -161
203 -277 180z"/>
<path d="M3090 2409 c-148 -122 -339 -199 -492 -199 -128 1 -291 53 -424 136
-75 46 -93 51 -125 34 -15 -8 -19 -21 -19 -59 0 -40 7 -59 39 -108 59 -87 141
-147 293 -214 40 -17 76 -37 80 -43 4 -6 8 -47 8 -91 l0 -80 113 -64 c61 -36
116 -70 120 -78 6 -10 40 -13 137 -13 l130 0 0 178 c0 97 3 187 6 199 3 12 31
41 61 64 59 46 168 175 214 254 34 58 38 114 11 138 -33 30 -63 19 -152 -54z"/>
<path d="M5389 2410 c-146 -122 -338 -200 -491 -200 -131 0 -314 60 -439 143
-63 41 -97 46 -124 17 -40 -44 9 -158 103 -241 54 -47 161 -109 243 -139 52
-20 57 -24 63 -58 3 -20 6 -58 6 -84 0 -47 0 -48 33 -48 56 -1 129 -33 230
-103 116 -80 149 -86 167 -32 6 19 25 45 41 59 l29 25 0 138 0 138 35 24 c54
36 164 158 223 245 58 86 68 138 34 169 -34 31 -65 21 -153 -53z"/>
<path d="M765 915 c-91 -49 -135 -150 -114 -262 12 -62 46 -104 132 -162 89
-60 106 -79 113 -123 5 -27 1 -40 -18 -63 -45 -52 -117 -29 -148 46 -7 16 -15
29 -19 29 -3 0 -22 -14 -41 -30 l-35 -29 20 -37 c57 -106 222 -133 320 -51 52
42 75 97 75 179 0 112 -18 140 -146 223 -45 29 -89 63 -98 76 -36 53 -3 129
58 129 40 0 71 -22 94 -65 l17 -34 34 28 34 28 -19 33 c-10 18 -36 47 -57 64
-33 26 -48 31 -105 34 -48 2 -76 -2 -97 -13z"/>


</g>
</svg>
